<svg xmlns="http://www.w3.org/2000/svg" viewBox="0 0 512 512" enable-background="new 0 0 512 512"><style type="text/css">.st0{fill:#6336FA;stroke:#6336FA;stroke-width:4;stroke-miterlimit:10;}</style><path d="M428.5 6.9h-21.4c-9.4 0-9.4 14.6 0 14.6h21.4c22.1 0 40.1 17.9 40.1 40v168.9c0 22-18 40-40.1 40h-24.3c-1.6 0-3.2.5-4.4 1.5L355.2 306v-28.3c0-4-3.3-7.3-7.3-7.3h-88.8c-7.3 0-14.3-1.9-20.4-5.6v-81.9c0-15.3-7.8-28.9-19.7-36.9V61.5c0-22 18-40 40.1-40h102.3c9.4 0 9.4-14.6 0-14.6H259.1c-30.2 0-54.7 24.5-54.7 54.6v78c-3.3-.8-6.8-1.2-10.4-1.2H60.4c-24.6 0-44.7 20-44.7 44.6v15.8c0 9.4 14.6 9.4 14.6 0v-15.8c0-16.5 13.5-30 30.1-30H194c16.6 0 30.1 13.4 30.1 30v84.8c-.1.6-.1 1.3 0 1.9V316c0 .9-.1 1.8-.1 2.7h-15c-16.6 0-30.4 12-33.3 27.7-.7.3-1.3.6-1.9 1.1l-32.6 25.2v-19.4c0-4-3.3-7.3-7.3-7.3H60.4c-16.6 0-30.1-13.4-30.1-30v-73.6c0-9.4-14.6-9.4-14.6 0V316c0 24.6 20 44.6 44.7 44.6h66.1v27c0 5.9 7.1 9.4 11.8 5.8l36.8-28.4v82.1c0 18.6 15.2 33.7 33.8 33.7h44.8v17c0 5.9 7.1 9.4 11.8 5.8l29.5-22.8h8.7c18.7 0 33.8-15.1 33.8-33.7v-13c0-9.4-14.6-9.4-14.6 0v13c0 10.6-8.6 19.2-19.2 19.2h-11.2c-1.6 0-3.2.5-4.5 1.5L268.3 483v-9.5c0-4-3.3-7.3-7.3-7.3h-52.1c-10.6 0-19.2-8.6-19.2-19.2v-94.5c0-10.6 8.6-19.2 19.2-19.2h94.8c10.6 0 19.2 8.6 19.2 19.2v35.8c0 9.4 14.6 9.4 14.6 0v-35.8c0-18.6-15.2-33.7-33.8-33.7h-65.1c.1-.9.1-37.8.1-37.8 6.4 2.6 13.3 3.9 20.4 3.9h81.5v35.8c0 5.8 7.1 9.4 11.7 5.8l54.3-41.6h21.8c30.2 0 54.7-24.5 54.7-54.6V61.5c.1-30.1-24.4-54.6-54.6-54.6zM362.1 60.9c-9.3-2.4-18.7 5-18.7 14.5 0 10.5-3.8 20.5-10.7 28.4l-20.1 22.8c-1.3-2-3.6-3.3-6.1-3.3h-39.3c-4 0-7.3 3.3-7.3 7.3v88.3c0 4 3.3 7.3 7.3 7.3h39.3c2.9 0 5.5-1.8 6.6-4.3 7.9 4.9 17.2 7.5 26.5 7.5H409c10.6 0 19.3-9.2 18.8-19.8-.2-4.7 0-67.6 0-68.9 0-10.4-8.5-18.9-18.8-18.9l-36.1-.1 1.5-3.5c6.8-16.2 5.7-34.9-3-50.1-2.1-3.7-5.4-6.2-9.3-7.2-4-1.1 3.9 1 0 0-9.3-2.4 3.9 1 0 0zm-63 150.6h-24.7v-73.7h24.7v73.7zm109.8-75.2c2.4 0 4.3 1.9 4.3 4.3 0 1.4 0 5.2 0 10.3-.1 28.2-.2 54.9 0 59.4.1 1.6-.7 2.7-1.2 3.2-.8.9-1.9 1.3-3.1 1.3h-69.4c-8.3 0-16.4-2.9-22.8-8.1l-3.1-2.5v-57l29.9-33.8c9.3-10.5 14.4-24 14.4-38 0-.4.6-.5.8-.2 6.5 11.3 7.3 25.2 2.2 37.2l-5.8 13.6c-1 2.3-.7 4.8.6 6.9 1.3 2 3.6 3.3 6.1 3.3l47.1.1zM78.2 260.4c-4 0-7.3 3.3-7.3 7.3s3.3 7.3 7.3 7.3h21.5l-4 24.3c-.7 4 2 7.7 6 8.4.4.1.8.1 1.2.1 3.5 0 6.6-2.5 7.2-6.1l4.4-26.7h17.6l-4 24.3c-.7 4 2 7.7 6 8.4.4.1.8.1 1.2.1 3.5 0 6.6-2.5 7.2-6.1l4.4-26.7h29.3c4 0 7.3-3.3 7.3-7.3s-3.3-7.3-7.3-7.3h-26.9l2.9-17.8h23.9c4 0 7.3-3.3 7.3-7.3s-3.3-7.3-7.3-7.3h-21.5l4-24.3c.7-4-2-7.7-6-8.4-4-.7-7.7 2-8.4 6l-4.4 26.7h-17.6l4-24.3c.7-4-2-7.7-6-8.4-4-.7-7.7 2-8.4 6l-4.4 26.7H78.2c-4 0-7.3 3.3-7.3 7.3s3.3 7.3 7.3 7.3h26.9l-2.9 17.8h-24zm41.7-17.8h17.6l-2.9 17.8H117l2.9-17.8zM256.2 371c-5.9-4.9-13.7-6.8-21.6-4.9-10.1 2.4-20.2 11.9-20.2 27.4 0 9.7 3.5 18.1 10.8 25.6 5.9 6.2 14.5 12.1 27.7 19.1 1.1.6 2.2.9 3.4.9 1.2 0 2.3-.3 3.4-.9 23.1-12.3 38.5-24.6 38.5-44.8 0-15.6-10.5-24.9-21-27.3-7.8-1.5-15.4.3-21 4.9zm27.4 22.6c0 10.9-7.2 19-27.3 30-20.1-11.1-27.3-19.1-27.3-30 0-8.1 4.7-12.1 9.1-13.2.8-.2 1.7-.3 2.6-.3 3.3 0 6.9 1.5 9.2 5.9 1.3 2.5 3.9 4 6.6 3.9 2.8-.1 5.3-1.7 6.5-4.2 2.4-5.1 7.3-6 11.2-5.1 4.5 1 9.4 5 9.4 13z" class="st0"/></svg>