<svg xmlns="http://www.w3.org/2000/svg" viewBox="0 0 512 512" enable-background="new 0 0 512 512"><style type="text/css">.st0{fill:#87D863;}</style><path d="M398.4 87.5c-5.9-6.5-16-6.9-22.5-1l-108 98.8-68.9-59.8c-6-5.2-14.9-5.2-20.9 0l-119 103c-6.7 5.8-7.4 15.8-1.6 22.5 3.2 3.6 7.6 5.5 12.1 5.5 3.7 0 7.4-1.3 10.4-3.9l108.5-94 69.2 60c6.1 5.3 15.2 5.2 21.2-.3L397.4 110c6.5-5.9 7-16 1-22.5zM453.7 35c-3.7-3.8-9.1-5.4-14.3-4.4l-90.3 17c-5.8 1.1-10.5 5.3-12.3 11s-.2 11.8 4 16l72.8 72.8c3 3 7.1 4.7 11.3 4.7 1.6 0 3.1-.2 4.7-.7 5.6-1.7 9.9-6.4 11-12.2l17.5-89.8c1-5.3-.6-10.7-4.4-14.4zM415 103.5l-30.3-30.3 37.5-7.1-7.2 37.4zM496.1 449.9H15.9C7.1 449.9 0 457 0 465.8s7.1 15.9 15.9 15.9H496c8.8 0 15.9-7.1 15.9-15.9s-7-15.9-15.8-15.9zM256 336.7c-8.8 0-15.9 7.1-15.9 15.9v113.1c0 8.8 7.1 15.9 15.9 15.9s15.9-7.1 15.9-15.9v-113c0-8.8-7.1-16-15.9-16zM192.3 241.1c-8.8 0-15.9 7.1-15.9 15.9v208.7c0 8.8 7.1 15.9 15.9 15.9s15.9-7.1 15.9-15.9V257.1c0-8.8-7.1-16-15.9-16zM319.7 294.2c-8.8 0-15.9 7.1-15.9 15.9v155.6c0 8.8 7.1 15.9 15.9 15.9s15.9-7.1 15.9-15.9V310.2c.1-8.8-7.1-16-15.9-16zM383.5 182.7c-8.8 0-15.9 7.1-15.9 15.9v267.2c0 8.8 7.1 15.9 15.9 15.9s15.9-7.1 15.9-15.9V198.6c0-8.8-7.1-15.9-15.9-15.9zM447.2 241.1c-8.8 0-15.9 7.1-15.9 15.9v208.7c0 8.8 7.1 15.9 15.9 15.9s15.9-7.1 15.9-15.9V257.1c0-8.8-7.1-16-15.9-16zM128.5 379.2c-8.8 0-15.9 7.1-15.9 15.9v70.6c0 8.8 7.1 15.9 15.9 15.9s15.9-7.1 15.9-15.9v-70.6c.1-8.7-7.1-15.9-15.9-15.9zM64.8 331.4c-8.8 0-15.9 7.1-15.9 15.9v118.4c0 8.8 7.1 15.9 15.9 15.9s15.9-7.1 15.9-15.9V347.4c0-8.8-7.1-16-15.9-16z" class="st0"/></svg>