<svg xmlns="http://www.w3.org/2000/svg" viewBox="0 0 512 512" enable-background="new 0 0 512 512"><style type="text/css">.st0{fill:#DB5A5A;}</style><path d="M424 280h16v16h-16v-16zM424 248h16v16h-16v-16zM424 216h16v16h-16v-16zM368.7 108.6l-8 13.8 13.9 8 8-13.8-13.9-8zM360.7 389.7l13.9-8 8 13.9-13.9 8-8-13.9zM334.4 407.3l13.9-8 8 13.9-13.9 8-8-13.9zM332.9 106.3l8-13.9 13.9 8-8 13.9-13.9-8zM305.4 421.4l8 13.8 13.9-8-8-13.8-13.9 8zM305.3 90.4l8-13.9 13.9 8-8 13.9-13.9-8z" class="st0"/><circle cx="256" cy="224" r="48" class="st0"/><path d="M184.7 84.7l8 13.8 13.9-8-8-13.8-13.9 8zM184.9 427.1l8-13.9 13.9 8-8 13.9-13.9-8zM157.2 411.1l8-13.9 13.9 8-8 13.9-13.9-8zM157.7 101.2l13.9-8 8 13.9-13.9 8-8-13.9zM137.4 381.5l-8 13.8 13.9 8 8-13.8-13.9-8zM129.4 116.8l13.9-8 8 13.9-13.9 8-8-13.9zM72 280h16v16H72v-16zM72 248h16v16H72v-16zM72 216h16v16H72v-16zM113.6 347.4l42.9-24.7c20.5 31.1 54.4 50.8 91.5 53.3v49.4c-6.6 1.7-12.4 5.4-16.7 10.6l-10.8-6.2-8 13.8 12.1 7c-3.3 17.4 8.1 34.1 25.5 37.4s34.1-8.1 37.4-25.5c.7-3.9.7-8 0-11.9l12.1-7-8-13.9-10.8 6.3c-4.2-5.4-10.1-9.2-16.7-11v-49c37.1-2.4 71-22 91.5-53l42.9 24.7c-1.8 6.5-1.5 13.5.9 19.8l-10.8 6.2 8 13.8 12.1-7c5.6 5.1 13 7.9 20.6 8 11.4 0 22-6.1 27.8-16 9.1-15.2 4.1-34.8-11-43.9-1.9-1.1-3.8-2-5.9-2.7v-14h-16v12.5c-6.7 1.1-12.8 4.3-17.6 9.1L363.7 309c16.4-33.4 16.4-72.5 0-105.9l42.7-24.6c4.7 4.9 10.9 8.1 17.6 9.1V200h16v-14c1.8-.6 3.5-1.3 5.2-2.2 15.4-8.7 20.9-28.2 12.2-43.6-8.7-15.4-28.2-20.9-43.6-12.2-1.9 1.1-3.6 2.3-5.2 3.7l-12.1-7-8 13.9 10.8 6.2c-2.4 6.4-2.7 13.3-.9 19.8l-42.7 24.6C335 158.3 301.1 138.7 264 136V87c6.6-1.7 12.4-5.5 16.7-10.7l10.8 6.2 8-13.8-12.1-7c3.3-17.4-8.1-34.1-25.5-37.4s-34.1 8.1-37.4 25.5c-.7 3.9-.7 8 0 11.9l-12.1 7 8 13.9 10.8-6.2c4.3 5.2 10.2 9 16.7 10.6v49c-37.1 2.6-70.9 22.1-91.7 53l-42.7-24.4c1.8-6.5 1.5-13.5-.9-19.8l10.8-6.2-8-13.8-12.1 7c-1.4-1.3-3-2.4-4.6-3.4-15.2-9-34.8-4-43.8 11.2s-4 34.8 11.2 43.8c1.9 1.1 3.8 2 5.8 2.7v14h16v-12.5c6.7-1 12.9-4.2 17.6-9.1l42.7 24.6c-16.4 33.4-16.4 72.5 0 105.9l-42.7 24.6c-4.7-4.9-10.9-8.1-17.6-9.2V312H72v14c-16.7 5.7-25.7 23.9-20 40.6s23.9 25.7 40.6 20c4-1.4 7.7-3.5 10.8-6.3l12.1 7 8-13.9-10.8-6.2c2.4-6.3 2.7-13.2.9-19.8zM166 204c28.8-49.7 92.4-66.7 142.1-37.9 15.7 9.1 28.8 22.2 37.9 37.9 24.5 42.5 16 96.4-20.6 129.3-3.5-12.8-10.4-24.5-20.1-33.7-28.9-27.3-74.5-26-101.8 2.9-8.2 8.7-14.1 19.2-17.2 30.7-36.4-32.8-44.9-86.7-20.3-129.2z" class="st0"/></svg>