<svg xmlns="http://www.w3.org/2000/svg" id="Capa_1" x="0" y="0" version="1.1" viewBox="0 0 512 512" xml:space="preserve"><style>.st0{fill:#ffc143}</style><path d="M109.1 195.6a55.4 55.4 0 100 110.8 55.4 55.4 0 000-110.8zm0 80.7c-13.9 0-25.3-11.3-25.3-25.3s11.3-25.3 25.3-25.3 25.3 11.3 25.3 25.3a25.4 25.4 0 01-25.3 25.3zM207.2 326.4c-30.5 0-55.4 24.8-55.4 55.4 0 30.5 24.8 55.4 55.4 55.4 30.5 0 55.4-24.8 55.4-55.4 0-30.5-24.9-55.4-55.4-55.4zm0 80.7c-13.9 0-25.3-11.3-25.3-25.3s11.3-25.3 25.3-25.3c13.9 0 25.3 11.3 25.3 25.3a25.4 25.4 0 01-25.3 25.3z" class="st0"/><path d="M498.1 326c-.1-.1-.2-.2-.3-.3l-52.1-49.2c29.2-22.1 42.4-61.1 30.4-97.3C419.5 8.6 202.3-45.5 72.9 82c-96.9 95.5-96 249.4-4.1 344.2 82.6 85.2 212.8 97.1 308.9 34.2 45-29.4 24.3-99.5-29.5-99.5-40.2 0-47-56.2-9-65.9l91.9 97.4c.1.1.2.2.3.3a47.14 47.14 0 0066.8 0 47.1 47.1 0 00-.1-66.7zm-194.5 47.3a64.38 64.38 0 0044.6 17.8c24 0 33.1 31.1 13 44.2-84.1 55.1-198.3 44.7-270.8-30C9.1 321.5 9.6 187 94.3 103.7c113.5-111.7 303.4-65 353.1 85 8.4 25.4-2.1 53-24.2 66.7l-83.6-78.9c5.1-24.3-1.9-49.9-20.3-68.3-23.1-23.1-95.7-34.6-127.2-38-9.6-1-17.6 7-16.6 16.6 3.4 31.6 14.9 104.1 38 127.2 18.4 18.4 44 25.4 68.3 20.3l35.2 37.3c-37.4 20.4-45.1 71.7-13.4 101.7zm-68.8-180.7c-11.3-11.3-21.5-54.5-26.8-90.1 35.6 5.4 78.7 15.5 90.1 26.8a44.6 44.6 0 010 63.2 44.63 44.63 0 01-63.3.1zm242.1 178.9c-6.6 6.6-17.4 6.7-24.1.1-7.7-8.2-134.8-142.9-141.9-150.4 5.9-4.4 11.3-9.7 15.7-15.7L477 347.4c6.5 6.7 6.5 17.4-.1 24.1z" class="st0"/></svg>