<svg xmlns="http://www.w3.org/2000/svg" id="_x37_1f7c613-2b64-40c8-917c-08a5745b7a35" x="0" y="0" version="1.1" viewBox="0 0 196.3 196.3" xml:space="preserve"><style>.st0{fill:#fff}</style><path d="M8 153.7c-3.3-5.4-1.6-12.5 3.8-15.7l161.9-98.5c5.4-3.3 12.5-1.6 15.7 3.8 3.3 5.4 1.6 12.5-3.8 15.7L23.7 157.5c-5.4 3.3-12.5 1.6-15.7-3.8z" class="st0"/><path d="M43.5 7.8c5.4-3.3 12.5-1.6 15.7 3.8l98.5 161.9c3.3 5.4 1.6 12.5-3.8 15.7-5.4 3.3-12.5 1.6-15.7-3.8L39.7 23.5c-3.3-5.4-1.6-12.5 3.8-15.7z" class="st0"/></svg>